{
  "accessors": [
    {
      "bufferView": 2,
      "componentType": 5126,
      "count": 3140,
      "max": [
        24.505252838134766,
        -17.501501083374023,
        69.066230773925781
      ],
      "min": [
        -24.512483596801758,
        -19.201526641845703,
        64.512969970703125
      ],
      "type": "VEC3"
    },
    {
      "bufferView": 2,
      "byteOffset": 37680,
      "componentType": 5126,
      "count": 3140,
      "max": [
        0.99916446208953857,
        1,
        1
      ],
      "min": [
        -0.99916446208953857,
        -1,
        -1
      ],
      "type": "VEC3"
    },
    {
      "bufferView": 3,
      "componentType": 5126,
      "count": 3140,
      "max": [
        0.99999988079071045,
        1,
        0.99974226951599121,
        1
      ],
      "min": [
        -0.99999988079071045,
        -1,
        -0.99994897842407227,
        -1
      ],
      "type": "VEC4"
    },
    {
      "bufferView": 1,
      "componentType": 5126,
      "count": 3140,
      "max": [
        0.99355298280715942,
        0.99359399080276489
      ],
      "min": [
        0.0027000000700354576,
        0.0026980000548064709
      ],
      "type": "VEC2"
    },
    {
      "bufferView": 0,
      "componentType": 5125,
      "count": 10668,
      "max": [
        3139
      ],
      "min": [
        0
      ],
      "type": "SCALAR"
    },
    {
      "bufferView": 2,
      "byteOffset": 75360,
      "componentType": 5126,
      "count": 32,
      "max": [
        42.392555236816406,
        -19.864004135131836,
        53.625087738037109
      ],
      "min": [
        -42.392555236816406,
        -20.645330429077148,
        49.388912200927734
      ],
      "type": "VEC3"
    },
    {
      "bufferView": 2,
      "byteOffset": 75744,
      "componentType": 5126,
      "count": 32,
      "max": [
        0.58857929706573486,
        0.46048381924629211,
        0.99832034111022949
      ],
      "min": [
        -0.58857929706573486,
        -0.18100674450397491,
        0.66447663307189941
      ],
      "type": "VEC3"
    },
    {
      "bufferView": 3,
      "byteOffset": 50240,
      "componentType": 5126,
      "count": 32,
      "max": [
        0.84864640235900879,
        0.96088385581970215,
        0.52341890335083008,
        1
      ],
      "min": [
        -0.84864640235900879,
        -0.87243705987930298,
        -0.369497150182724,
        -1
      ],
      "type": "VEC4"
    },
    {
      "bufferView": 1,
      "byteOffset": 25120,
      "componentType": 5126,
      "count": 32,
      "max": [
        0.84893298149108887,
        0.68457597494125366
      ],
      "min": [
        0.09313800185918808,
        0.39545398950576782
      ],
      "type": "VEC2"
    },
    {
      "bufferView": 0,
      "byteOffset": 42672,
      "componentType": 5125,
      "count": 48,
      "max": [
        31
      ],
      "min": [
        0
      ],
      "type": "SCALAR"
    },
    {
      "bufferView": 2,
      "byteOffset": 76128,
      "componentType": 5126,
      "count": 10626,
      "max": [
        45.755294799804688,
        20.795261383056641,
        77.000007629394531
      ],
      "min": [
        -45.755294799804688,
        -20.966531753540039,
        -0.00099900003988295794
      ],
      "type": "VEC3"
    },
    {
      "bufferView": 2,
      "byteOffset": 203640,
      "componentType": 5126,
      "count": 10626,
      "max": [
        1,
        1,
        1
      ],
      "min": [
        -1,
        -1,
        -1
      ],
      "type": "VEC3"
    },
    {
      "bufferView": 3,
      "byteOffset": 50752,
      "componentType": 5126,
      "count": 10626,
      "max": [
        1,
        1,
        1,
        1
      ],
      "min": [
        -1,
        -1,
        -1,
        -1
      ],
      "type": "VEC4"
    },
    {
      "bufferView": 1,
      "byteOffset": 25376,
      "componentType": 5126,
      "count": 10626,
      "max": [
        0.99239099025726318,
        0.99753499031066895
      ],
      "min": [
        0.0024510000366717577,
        0.0024510000366717577
      ],
      "type": "VEC2"
    },
    {
      "bufferView": 0,
      "byteOffset": 42864,
      "componentType": 5125,
      "count": 38550,
      "max": [
        10625
      ],
      "min": [
        0
      ],
      "type": "SCALAR"
    }
  ],
  "asset": {
    "extras": {
      "author": "Interiors3D (https://sketchfab.com/Interiors3D)",
      "license": "CC-BY-4.0 (http://creativecommons.org/licenses/by/4.0/)",
      "source": "https://sketchfab.com/3d-models/ppd500-f586ad3c0903454a97c9f838cf3645ac",
      "title": "PPD500"
    },
    "generator": "Sketchfab-9.9.0",
    "version": "2.0"
  },
  "bufferViews": [
    {
      "buffer": 0,
      "byteLength": 197064,
      "byteOffset": 0,
      "name": "floatBufferViews",
      "target": 34963
    },
    {
      "buffer": 0,
      "byteLength": 110384,
      "byteOffset": 197064,
      "byteStride": 8,
      "name": "floatBufferViews",
      "target": 34962
    },
    {
      "buffer": 0,
      "byteLength": 331152,
      "byteOffset": 307448,
      "byteStride": 12,
      "name": "floatBufferViews",
      "target": 34962
    },
    {
      "buffer": 0,
      "byteLength": 220768,
      "byteOffset": 638600,
      "byteStride": 16,
      "name": "floatBufferViews",
      "target": 34962
    }
  ],
  "buffers": [
    {
      "byteLength": 859368,
      "uri": "scene.bin"
    }
  ],
  "images": [
    {
      "uri": "textures/Metal_baseColor.jpeg"
    },
    {
      "uri": "textures/Metal_normal.png"
    },
    {
      "uri": "textures/Painted_wood_baseColor.jpeg"
    },
    {
      "uri": "textures/Painted_wood_metallicRoughness.png"
    },
    {
      "uri": "textures/Painted_wood_normal.png"
    }
  ],
  "materials": [
    {
      "doubleSided": true,
      "name": "Metal",
      "normalTexture": {
        "index": 1,
        "scale": 1,
        "texCoord": 0
      },
      "pbrMetallicRoughness": {
        "baseColorFactor": [
          1,
          1,
          1,
          1
        ],
        "baseColorTexture": {
          "index": 0,
          "texCoord": 0
        },
        "metallicFactor": 1,
        "roughnessFactor": 0.19364916731037085
      }
    },
    {
      "doubleSided": true,
      "name": "Painted_wood",
      "normalTexture": {
        "index": 4,
        "scale": 0.20000000000000001,
        "texCoord": 0
      },
      "pbrMetallicRoughness": {
        "baseColorFactor": [
          1,
          1,
          1,
          1
        ],
        "baseColorTexture": {
          "index": 2,
          "texCoord": 0
        },
        "metallicFactor": 0,
        "metallicRoughnessTexture": {
          "index": 3,
          "texCoord": 0
        },
        "roughnessFactor": 1
      }
    }
  ],
  "meshes": [
    {
      "primitives": [
        {
          "attributes": {
            "NORMAL": 1,
            "POSITION": 0,
            "TANGENT": 2,
            "TEXCOORD_0": 3
          },
          "indices": 4,
          "material": 0,
          "mode": 4
        }
      ]
    },
    {
      "primitives": [
        {
          "attributes": {
            "NORMAL": 6,
            "POSITION": 5,
            "TANGENT": 7,
            "TEXCOORD_0": 8
          },
          "indices": 9,
          "material": 1,
          "mode": 4
        }
      ]
    },
    {
      "primitives": [
        {
          "attributes": {
            "NORMAL": 11,
            "POSITION": 10,
            "TANGENT": 12,
            "TEXCOORD_0": 13
          },
          "indices": 14,
          "material": 1,
          "mode": 4
        }
      ]
    }
  ],
  "nodes": [
    {
      "children": [
        1
      ],
      "name": "RootNode (gltf orientation matrix)",
      "rotation": [
        -0.70710678118654746,
        -0,
        -0,
        0.70710678118654757
      ]
    },
    {
      "children": [
        2
      ],
      "name": "RootNode (model correction matrix)"
    },
    {
      "children": [
        3,
        4,
        5
      ],
      "name": "W27 - PPD500 - Sketchfab - mesh1.obj.cleaner.materialmerger.gles"
    },
    {
      "mesh": 0,
      "name": ""
    },
    {
      "mesh": 1,
      "name": ""
    },
    {
      "mesh": 2,
      "name": ""
    }
  ],
  "samplers": [
    {
      "magFilter": 9729,
      "minFilter": 9987,
      "wrapS": 10497,
      "wrapT": 10497
    }
  ],
  "scene": 0,
  "scenes": [
    {
      "name": "OSG_Scene",
      "nodes": [
        0
      ]
    }
  ],
  "textures": [
    {
      "sampler": 0,
      "source": 0
    },
    {
      "sampler": 0,
      "source": 1
    },
    {
      "sampler": 0,
      "source": 2
    },
    {
      "sampler": 0,
      "source": 3
    },
    {
      "sampler": 0,
      "source": 4
    }
  ]
}

